<svg xmlns="http://www.w3.org/2000/svg" viewBox="0 0 64 64" role="img" aria-label="Seoulog">
  <rect width="64" height="64" rx="16" fill="#0b74b2"/>
  <path fill="#ffffff" d="M20 41.5c2.8 3.1 7.1 4.9 12.2 4.9 7.2 0 12-3.6 12-9.3 0-5.2-3.4-7.7-10.5-9.2l-3.5-.7c-3.5-.8-5.1-1.8-5.1-3.7 0-2.1 2-3.4 5.5-3.4 3.4 0 6.3 1.2 8.7 3.5l4.1-5.2c-3-3-7.3-4.7-12.7-4.7-7 0-11.9 3.8-11.9 9.4 0 5.1 3.4 7.7 10.2 9.1l3.7.8c3.6.8 5.2 1.9 5.2 3.9 0 2.2-2.1 3.5-5.8 3.5-3.6 0-6.6-1.3-8.9-3.9L20 41.5z"/>
  <path fill="#8fd6ff" d="M14 49h36v4H14z"/>
</svg>